<svg width="23" height="11" viewBox="0 0 23 11" fill="none" xmlns="http://www.w3.org/2000/svg">
<path d="M18.8198 2.63259C19.5322 1.7447 19.868 1.04517 19.868 1.04517L18.8198 2.63259ZM18.8198 2.63259C18.1421 3.47725 17.1235 4.49245 15.729 5.23805M18.8198 2.63259L15.729 5.23805M18.8198 2.63259L21.9644 4.18983M11.4822 6.28627C9.79668 6.28627 8.38772 5.8542 7.23546 5.23805M11.4822 6.28627L7.23546 5.23805M11.4822 6.28627C13.1678 6.28627 14.5767 5.8542 15.729 5.23805M11.4822 6.28627L15.729 5.23805M11.4822 6.28627V9.95505M7.23546 5.23805L4.14467 8.38272M7.23546 5.23805C5.91532 4.53218 4.93213 3.5848 4.25607 2.76928M7.23546 5.23805L4.25607 2.76928M15.729 5.23805L18.2957 8.38272M4.25607 2.76928C3.46717 1.81752 3.09644 1.04517 3.09644 1.04517L4.25607 2.76928ZM4.25607 2.76928L1 4.18983" stroke="#084C61" stroke-width="2" stroke-linecap="round" stroke-linejoin="round"/>
</svg>
